<svg width="24" height="24" viewBox="0 0 24 24" fill="none" xmlns="http://www.w3.org/2000/svg">
<path d="M19.2411 8.99888L9.28661 3.45836C8.74796 3.15649 8.13658 2.99835 7.51458 3.00001C6.89257 3.00167 6.2821 3.16306 5.74517 3.4678C5.20824 3.77254 4.76397 4.20976 4.45749 4.73506C4.15102 5.26036 3.99325 5.85502 4.00022 6.45864V17.5797C4.00022 18.4868 4.37153 19.3568 5.03245 19.9982C5.69338 20.6396 6.58979 21 7.52448 21C8.14322 20.999 8.75085 20.8403 9.28661 20.54L19.2411 14.9994C19.776 14.699 20.22 14.2673 20.5288 13.7478C20.8375 13.2282 21 12.6389 21 12.0392C21 11.4394 20.8375 10.8501 20.5288 10.3306C20.22 9.81098 19.776 9.29932 19.2411 8.99888Z" fill="white"/>
</svg>
