<svg width="24" height="24" viewBox="0 0 24 24" fill="none" xmlns="http://www.w3.org/2000/svg">
<path d="M19 21H18V19.333C17.9969 18.7607 17.8956 18.1933 17.7004 17.6553C17.6895 17.6259 17.678 17.5987 17.6645 17.5707C17.5026 17.1291 17.2788 16.7128 17 16.334L15.6001 14.4668C15.2117 13.9466 15.0012 13.3152 15 12.666V11.6562C15.0023 10.8611 15.3179 10.099 15.8784 9.53511L16.5356 8.87788C17.2993 8.11013 17.7898 7.11297 17.932 6.0395C17.9325 6.02559 17.9399 6.01399 17.9399 5.99995L17.9371 5.98622C17.9719 5.7733 17.9929 5.55836 18 5.34273V3H19C19.2652 3 19.5196 2.89464 19.7071 2.70711C19.8947 2.51957 20 2.26522 20 2C20 1.73478 19.8947 1.48043 19.7071 1.29289C19.5196 1.10536 19.2652 1 19 1H5.00001C4.73479 1 4.48044 1.10536 4.2929 1.29289C4.10537 1.48043 4.00001 1.73478 4.00001 2C4.00001 2.26522 4.10537 2.51957 4.2929 2.70711C4.48044 2.89464 4.73479 3 5.00001 3H6.00001V5.34273C6.00711 5.55836 6.02811 5.7733 6.06288 5.98622L6.06006 6C6.06006 6.014 6.0675 6.02564 6.06806 6.03955C6.21022 7.11302 6.70075 8.11017 7.46436 8.87793L8.12159 9.53516C8.68208 10.099 8.9977 10.8611 9 11.6562V12.666C8.9987 13.3151 8.78846 13.9465 8.40039 14.4668L6.99951 16.3339C6.72075 16.7129 6.49708 17.1294 6.33514 17.5711C6.32184 17.5988 6.31042 17.6257 6.29962 17.6548C6.10448 18.1929 6.00313 18.7606 6 19.333V21H5C4.73478 21 4.48043 21.1054 4.29289 21.2929C4.10536 21.4804 4 21.7348 4 22C4 22.2652 4.10536 22.5196 4.29289 22.7071C4.48043 22.8946 4.73478 23 5 23H19C19.2652 23 19.5196 22.8946 19.7071 22.7071C19.8946 22.5196 20 22.2652 20 22C20 21.7348 19.8946 21.4804 19.7071 21.2929C19.5196 21.1054 19.2652 21 19 21ZM8 5V3H16V5H8ZM8.87842 7.46387C8.73751 7.32231 8.61124 7.1669 8.50153 7H15.4985C15.3888 7.1669 15.2625 7.32231 15.1216 7.46387L14.4643 8.1211C13.6843 8.89655 13.1841 9.90926 13.0425 11H10.9575C10.8158 9.90923 10.3157 8.89648 9.53564 8.121L8.87842 7.46387ZM10.0005 15.666C10.5791 14.8907 10.9222 13.9651 10.9888 13H13.0112C13.0777 13.9652 13.421 14.8908 14 15.666L15.0001 17H8.99963L10.0005 15.666ZM16 21H8V19.333C8.00278 19.2216 8.01187 19.1104 8.02722 19H15.9728C15.9881 19.1104 15.9972 19.2216 16 19.333V21Z" fill="#212329"/>
</svg>
